#N canvas 301 12 1431 882 10;
#X declare -lib mrpeach;
#X obj 26 778 udpsend;
#X obj 826 746 packOSC;
#X obj 1193 -74 import mrpeach;
#X obj 26 -35 udpreceive 9999;
#X msg 865 684 [;
#X msg 826 684 ];
#X obj 826 662 t b a b;
#X msg 641 483 /sendTestMsg;
#X msg 734 542 /sendTestBndl;
#X msg 1236 554 [;
#X msg 1086 598 ];
#X msg 1202 597 /sendTestMsg;
#X msg 1217 574 /sendTestBndl;
#X obj 1124 469 bng 40 250 50 0 empty empty empty 17 7 0 10 -261234
-1 -1;
#X obj 55 229 loadbang;
#X obj 26 71 sprintf connect %d.%d.%d.%d 8888;
#X obj 213 103 print Spark_Core_IP;
#X obj 357 485 tgl 15 0 empty empty empty 17 7 0 10 -261234 -1 -1 0
1;
#X floatatom 408 485 4 100 500 0 - - -;
#X obj 357 509 metro 500;
#X obj 357 573 tgl 40 0 empty empty empty 17 7 0 10 -262144 -1 -1 0
1;
#X msg 357 617 /led 0 \$1;
#X msg 214 604 /sendTestBndl;
#X obj 433 103 print Test_Message;
#X obj 629 103 print Test_Bundle;
#X obj 875 103 print Trash;
#X obj 191 678 packOSC;
#X obj 357 529 TogEdge;
#X msg 357 551 1;
#X msg 396 551 0;
#X obj 497 485 tgl 15 0 empty empty empty 17 7 0 10 -261234 -1 -1 0
1;
#X floatatom 548 485 4 100 500 0 - - -;
#X obj 497 509 metro 500;
#X obj 497 573 tgl 40 0 empty empty empty 17 7 0 10 -262144 -1 -1 0
1;
#X obj 497 529 TogEdge;
#X msg 497 551 1;
#X msg 536 551 0;
#X msg 497 617 /led 1 \$1;
#X obj 26 -12 unpackOSC;
#X msg 855 625 /led 0 \$1;
#X msg 1122 598 /led 0 \$1;
#X obj 1122 550 TogEdge;
#X msg 1122 574 1;
#X msg 1161 574 0;
#X obj 1171 751 packOSC;
#X text 201 405 ------------------ SENDING OSC MESSAGES ------------------
;
#X text 819 405 ----------------- SENDING OSC BUNDLES -----------------
;
#X text 1175 479 UNLEASH THE BUNDLING FURY !;
#X text 409 122 Receiving the test message;
#X text 431 139 from the Spark Core;
#X text 608 122 Receiving the test bundle;
#X text 627 139 from the Spark Core;
#X text 186 122 Receiving the Spark Core's IP;
#X text 170 139 (message sent when the Core starts);
#X text 819 122 Incoming OSC messages that are not;
#X text 828 139 taken into account by this patch;
#X text 218 251 (use port 8888 to send messages to the Spark Core)
;
#X text 124 -36 (data from the Spark Core is received on port 9999)
;
#X text 188 459 Ask the Spark Core;
#X text 339 426 Ask the Spark Core;
#X text 339 439 to make the 1st LED;
#X text 340 454 blink (pin D0);
#X text 482 425 Ask the Spark Core;
#X text 480 438 to make the 2nd LED;
#X text 481 453 blink (pin D1);
#X text 418 164 ----------- RECEIVING OSC MESSAGES AND BUNDLES ------------
;
#X text 184 164 ---------------------------------------;
#X text 773 164 ---------------------------------------;
#X text 188 473 to send a test;
#X text 189 487 message;
#X text 209 554 Ask the Spark Core;
#X text 209 568 to send a test;
#X text 210 582 bundle;
#X text 626 430 Ask the Spark Core;
#X text 626 444 to send a test;
#X text 627 458 message;
#X text 727 492 Ask the Spark Core;
#X text 727 506 to send a test;
#X text 728 520 bundle;
#X text 835 442 Ask the Spark Core;
#X text 835 455 to make the 1st LED;
#X text 836 470 blink (pin D0);
#X text 965 442 Ask the Spark Core;
#X text 965 455 to make the 2nd LED;
#X text 966 470 blink (pin D1);
#X msg 619 674 [ \, /sendTestBndl \, ];
#X msg 42 120 disconnect;
#X obj 26 97 t a b;
#X msg 55 253 connect 192.168.1.19 8888;
#X obj 26 16 OSCroute /coreip /testmessage /testbundle/*;
#X msg 130 374 /manageBundles;
#X obj 62 625 packOSC;
#X text 227 373 Ask the Spark Core to take OSCBundles into account
;
#X text 226 346 Ask the Spark Core to take OSCMessages into account
;
#X text 538 346 (OSCBundles will be ignored);
#X text 534 374 (OSCMessages will be ignored);
#X msg 191 512 /sendTestMsg;
#X obj 855 490 tgl 15 0 empty empty empty 17 7 0 10 -261234 -1 -1 0
1;
#X floatatom 906 490 4 100 500 0 - - -;
#X obj 855 514 metro 500;
#X obj 855 578 tgl 40 0 empty empty empty 17 7 0 10 -262144 -1 -1 0
1;
#X obj 855 534 TogEdge;
#X msg 855 556 1;
#X msg 894 556 0;
#X obj 982 489 tgl 15 0 empty empty empty 17 7 0 10 -261234 -1 -1 0
1;
#X floatatom 1033 489 4 100 500 0 - - -;
#X obj 982 513 metro 500;
#X obj 982 577 tgl 40 0 empty empty empty 17 7 0 10 -262144 -1 -1 0
1;
#X obj 982 533 TogEdge;
#X msg 982 555 1;
#X msg 1021 555 0;
#X msg 982 624 /led 1 \$1;
#X msg 620 699 [ \, /sendTestMsg \, ];
#X obj 587 730 packOSC;
#X text 617 637 Another way;
#X text 617 652 to send OSCBundles;
#X msg 88 346 [ \, /manageMessages \, ];
#X obj 1124 516 t b b b b b;
#X text 900 668 Bundling;
#X text 898 684 (with brackets);
#X text 626 405 --------------------------------;
#X text 1149 405 --------------------------------;
#X connect 1 0 0 0;
#X connect 3 0 38 0;
#X connect 4 0 1 0;
#X connect 5 0 1 0;
#X connect 6 0 5 0;
#X connect 6 1 1 0;
#X connect 6 2 4 0;
#X connect 7 0 6 0;
#X connect 8 0 6 0;
#X connect 9 0 44 0;
#X connect 10 0 44 0;
#X connect 11 0 44 0;
#X connect 12 0 44 0;
#X connect 13 0 117 0;
#X connect 14 0 88 0;
#X connect 15 0 16 0;
#X connect 15 0 87 0;
#X connect 17 0 19 0;
#X connect 18 0 19 1;
#X connect 19 0 27 0;
#X connect 20 0 21 0;
#X connect 21 0 26 0;
#X connect 22 0 26 0;
#X connect 26 0 0 0;
#X connect 27 0 28 0;
#X connect 27 1 29 0;
#X connect 28 0 20 0;
#X connect 29 0 20 0;
#X connect 30 0 32 0;
#X connect 31 0 32 1;
#X connect 32 0 34 0;
#X connect 33 0 37 0;
#X connect 34 0 35 0;
#X connect 34 1 36 0;
#X connect 35 0 33 0;
#X connect 36 0 33 0;
#X connect 37 0 26 0;
#X connect 38 0 89 0;
#X connect 39 0 6 0;
#X connect 40 0 44 0;
#X connect 41 0 42 0;
#X connect 41 1 43 0;
#X connect 42 0 40 0;
#X connect 43 0 40 0;
#X connect 44 0 0 0;
#X connect 85 0 113 0;
#X connect 86 0 0 0;
#X connect 87 0 0 0;
#X connect 87 1 86 0;
#X connect 88 0 0 0;
#X connect 89 0 15 0;
#X connect 89 1 23 0;
#X connect 89 2 24 0;
#X connect 89 3 25 0;
#X connect 90 0 91 0;
#X connect 91 0 0 0;
#X connect 96 0 26 0;
#X connect 97 0 99 0;
#X connect 98 0 99 1;
#X connect 99 0 101 0;
#X connect 100 0 39 0;
#X connect 101 0 102 0;
#X connect 101 1 103 0;
#X connect 102 0 100 0;
#X connect 103 0 100 0;
#X connect 104 0 106 0;
#X connect 105 0 106 1;
#X connect 106 0 108 0;
#X connect 107 0 111 0;
#X connect 108 0 109 0;
#X connect 108 1 110 0;
#X connect 109 0 107 0;
#X connect 110 0 107 0;
#X connect 111 0 6 0;
#X connect 112 0 113 0;
#X connect 113 0 0 0;
#X connect 116 0 91 0;
#X connect 117 0 10 0;
#X connect 117 1 41 0;
#X connect 117 2 11 0;
#X connect 117 3 12 0;
#X connect 117 4 9 0;
